<mxfile host="app.diagrams.net" modified="2022-09-13T01:05:29.007Z" agent="5.0 (Macintosh; Intel Mac OS X 10_15_7) AppleWebKit/537.36 (KHTML, like Gecko) Chrome/105.0.0.0 Safari/537.36" etag="EPr1_SsmdchzUBsrPo5S" version="20.2.7" type="github">
  <diagram id="GTAcNOahQg4z8RNM0Ugo" name="第 1 页">
    <mxGraphModel dx="946" dy="517" grid="1" gridSize="10" guides="1" tooltips="1" connect="1" arrows="1" fold="1" page="1" pageScale="1" pageWidth="827" pageHeight="1169" math="0" shadow="0">
      <root>
        <mxCell id="0" />
        <mxCell id="1" parent="0" />
        <mxCell id="nK2M0xXwByjOGNZyM0Qb-1" value="销售" style="rounded=1;whiteSpace=wrap;html=1;" vertex="1" parent="1">
          <mxGeometry x="600" y="60" width="120" height="60" as="geometry" />
        </mxCell>
        <mxCell id="nK2M0xXwByjOGNZyM0Qb-5" value="" style="edgeStyle=orthogonalEdgeStyle;rounded=0;orthogonalLoop=1;jettySize=auto;html=1;" edge="1" parent="1" source="nK2M0xXwByjOGNZyM0Qb-2" target="nK2M0xXwByjOGNZyM0Qb-4">
          <mxGeometry relative="1" as="geometry" />
        </mxCell>
        <mxCell id="nK2M0xXwByjOGNZyM0Qb-17" style="edgeStyle=orthogonalEdgeStyle;rounded=0;orthogonalLoop=1;jettySize=auto;html=1;exitX=0.5;exitY=1;exitDx=0;exitDy=0;entryX=0.5;entryY=0;entryDx=0;entryDy=0;" edge="1" parent="1" source="nK2M0xXwByjOGNZyM0Qb-2" target="nK2M0xXwByjOGNZyM0Qb-15">
          <mxGeometry relative="1" as="geometry" />
        </mxCell>
        <mxCell id="nK2M0xXwByjOGNZyM0Qb-2" value="进货" style="rounded=1;whiteSpace=wrap;html=1;" vertex="1" parent="1">
          <mxGeometry x="80" y="60" width="120" height="60" as="geometry" />
        </mxCell>
        <mxCell id="nK2M0xXwByjOGNZyM0Qb-9" value="" style="edgeStyle=orthogonalEdgeStyle;rounded=0;orthogonalLoop=1;jettySize=auto;html=1;" edge="1" parent="1" source="nK2M0xXwByjOGNZyM0Qb-3" target="nK2M0xXwByjOGNZyM0Qb-8">
          <mxGeometry relative="1" as="geometry" />
        </mxCell>
        <mxCell id="nK2M0xXwByjOGNZyM0Qb-3" value="存货" style="rounded=1;whiteSpace=wrap;html=1;" vertex="1" parent="1">
          <mxGeometry x="330" y="60" width="120" height="60" as="geometry" />
        </mxCell>
        <mxCell id="nK2M0xXwByjOGNZyM0Qb-7" value="" style="edgeStyle=orthogonalEdgeStyle;rounded=0;orthogonalLoop=1;jettySize=auto;html=1;" edge="1" parent="1" source="nK2M0xXwByjOGNZyM0Qb-4" target="nK2M0xXwByjOGNZyM0Qb-6">
          <mxGeometry relative="1" as="geometry" />
        </mxCell>
        <mxCell id="nK2M0xXwByjOGNZyM0Qb-4" value="填写进货单" style="shape=parallelogram;perimeter=parallelogramPerimeter;whiteSpace=wrap;html=1;fixedSize=1;rounded=1;" vertex="1" parent="1">
          <mxGeometry x="10" y="200" width="120" height="60" as="geometry" />
        </mxCell>
        <mxCell id="nK2M0xXwByjOGNZyM0Qb-10" style="edgeStyle=orthogonalEdgeStyle;rounded=0;orthogonalLoop=1;jettySize=auto;html=1;exitX=1;exitY=0.5;exitDx=0;exitDy=0;" edge="1" parent="1" source="nK2M0xXwByjOGNZyM0Qb-6" target="nK2M0xXwByjOGNZyM0Qb-8">
          <mxGeometry relative="1" as="geometry" />
        </mxCell>
        <mxCell id="nK2M0xXwByjOGNZyM0Qb-11" value="通过" style="edgeLabel;html=1;align=center;verticalAlign=middle;resizable=0;points=[];" vertex="1" connectable="0" parent="nK2M0xXwByjOGNZyM0Qb-10">
          <mxGeometry x="-0.5187" relative="1" as="geometry">
            <mxPoint x="-57" as="offset" />
          </mxGeometry>
        </mxCell>
        <mxCell id="nK2M0xXwByjOGNZyM0Qb-13" value="不通过" style="edgeStyle=orthogonalEdgeStyle;rounded=0;orthogonalLoop=1;jettySize=auto;html=1;" edge="1" parent="1" source="nK2M0xXwByjOGNZyM0Qb-6" target="nK2M0xXwByjOGNZyM0Qb-12">
          <mxGeometry relative="1" as="geometry" />
        </mxCell>
        <mxCell id="nK2M0xXwByjOGNZyM0Qb-14" style="edgeStyle=orthogonalEdgeStyle;rounded=0;orthogonalLoop=1;jettySize=auto;html=1;exitX=1;exitY=0.5;exitDx=0;exitDy=0;entryX=1;entryY=0.5;entryDx=0;entryDy=0;" edge="1" parent="1" source="nK2M0xXwByjOGNZyM0Qb-6" target="nK2M0xXwByjOGNZyM0Qb-12">
          <mxGeometry relative="1" as="geometry" />
        </mxCell>
        <mxCell id="nK2M0xXwByjOGNZyM0Qb-6" value="审批" style="rhombus;whiteSpace=wrap;html=1;rounded=1;" vertex="1" parent="1">
          <mxGeometry x="100" y="330" width="80" height="80" as="geometry" />
        </mxCell>
        <mxCell id="nK2M0xXwByjOGNZyM0Qb-8" value="更新库存" style="ellipse;whiteSpace=wrap;html=1;rounded=1;" vertex="1" parent="1">
          <mxGeometry x="330" y="430" width="120" height="60" as="geometry" />
        </mxCell>
        <mxCell id="nK2M0xXwByjOGNZyM0Qb-12" value="更新进退货单状态" style="ellipse;whiteSpace=wrap;html=1;rounded=1;" vertex="1" parent="1">
          <mxGeometry x="80" y="500" width="120" height="60" as="geometry" />
        </mxCell>
        <mxCell id="nK2M0xXwByjOGNZyM0Qb-18" style="edgeStyle=orthogonalEdgeStyle;rounded=0;orthogonalLoop=1;jettySize=auto;html=1;exitX=0.5;exitY=1;exitDx=0;exitDy=0;entryX=0.5;entryY=0;entryDx=0;entryDy=0;" edge="1" parent="1" source="nK2M0xXwByjOGNZyM0Qb-15" target="nK2M0xXwByjOGNZyM0Qb-6">
          <mxGeometry relative="1" as="geometry" />
        </mxCell>
        <mxCell id="nK2M0xXwByjOGNZyM0Qb-15" value="填写退货单" style="shape=parallelogram;perimeter=parallelogramPerimeter;whiteSpace=wrap;html=1;fixedSize=1;rounded=1;" vertex="1" parent="1">
          <mxGeometry x="150" y="200" width="120" height="60" as="geometry" />
        </mxCell>
      </root>
    </mxGraphModel>
  </diagram>
</mxfile>
